<svg width="24" height="22" viewBox="0 0 24 22" fill="none" xmlns="http://www.w3.org/2000/svg">
<path d="M16.5 7.19901V5.00001H7.5C6.4789 4.99991 5.47466 5.26041 4.58235 5.75685C3.69005 6.25329 2.9392 6.96924 2.4009 7.83693C1.86259 8.70462 1.55463 9.69533 1.50618 10.7153C1.45772 11.7352 1.67038 12.7507 2.124 13.6655C2.16793 13.7538 2.19405 13.8498 2.20086 13.9481C2.20767 14.0465 2.19505 14.1452 2.16371 14.2387C2.13237 14.3321 2.08292 14.4185 2.0182 14.4928C1.95348 14.5672 1.87475 14.6281 1.7865 14.672C1.69825 14.7159 1.60222 14.742 1.50388 14.7489C1.40554 14.7557 1.30682 14.743 1.21335 14.7117C1.11989 14.6804 1.03352 14.6309 0.959163 14.5662C0.884809 14.5015 0.82393 14.4228 0.780003 14.3345C0.212363 13.1909 -0.0539346 11.9213 0.00633205 10.646C0.0665987 9.37066 0.451435 8.13184 1.12439 7.04685C1.79734 5.96186 2.73614 5.06663 3.85185 4.44594C4.96757 3.82525 6.22326 3.49966 7.5 3.50001H16.5V1.30101C16.5 1.22975 16.5204 1.15998 16.5586 1.09986C16.5969 1.03974 16.6514 0.99176 16.716 0.961541C16.7805 0.931322 16.8523 0.920114 16.923 0.929228C16.9936 0.938343 17.0603 0.967404 17.115 1.01301L20.655 3.96201C20.835 4.11201 20.835 4.38801 20.655 4.53801L17.115 7.48701C17.0603 7.53261 16.9936 7.56167 16.923 7.57079C16.8523 7.5799 16.7805 7.56869 16.716 7.53847C16.6514 7.50825 16.5969 7.46028 16.5586 7.40016C16.5204 7.34004 16.5 7.27026 16.5 7.19901ZM22.215 7.32801C22.393 7.23959 22.5989 7.22547 22.7874 7.28875C22.9758 7.35204 23.1314 7.48755 23.22 7.66551C23.7876 8.80912 24.0539 10.0787 23.9937 11.354C23.9334 12.6294 23.5486 13.8682 22.8756 14.9532C22.2027 16.0382 21.2639 16.9334 20.1482 17.5541C19.0324 18.1748 17.7767 18.5004 16.5 18.5H7.5V20.699C7.49998 20.7703 7.47965 20.84 7.4414 20.9002C7.40315 20.9603 7.34857 21.0083 7.28404 21.0385C7.21951 21.0687 7.1477 21.0799 7.07703 21.0708C7.00636 21.0617 6.93975 21.0326 6.885 20.987L3.345 18.038C3.3028 18.0028 3.26885 17.9588 3.24555 17.909C3.22225 17.8592 3.21017 17.805 3.21017 17.75C3.21017 17.6951 3.22225 17.6408 3.24555 17.591C3.26885 17.5412 3.3028 17.4972 3.345 17.462L6.885 14.513C6.93975 14.4674 7.00636 14.4383 7.07703 14.4292C7.1477 14.4201 7.21951 14.4313 7.28404 14.4615C7.34857 14.4918 7.40315 14.5397 7.4414 14.5999C7.47965 14.66 7.49998 14.7298 7.5 14.801V17H16.5C17.5212 17.0004 18.5257 16.74 19.4182 16.2437C20.3107 15.7474 21.0617 15.0315 21.6002 14.1637C22.1387 13.296 22.4468 12.3052 22.4953 11.2851C22.5438 10.265 22.3312 9.24943 21.8775 8.33451C21.7891 8.15646 21.775 7.9506 21.8382 7.76216C21.9015 7.57371 22.037 7.41659 22.215 7.32801Z" fill="#F5F5F5"/>
</svg>
