<svg width="22" height="21" viewBox="0 0 22 21" fill="currentColor" xmlns="http://www.w3.org/2000/svg">
<path d="M21.4231 8.11812C21.3294 7.82986 21.1524 7.5758 20.9145 7.38795C20.6766 7.2001 20.3884 7.08686 20.0863 7.06249L14.555 6.61624L12.4194 1.45155C12.3039 1.17013 12.1073 0.929412 11.8547 0.759996C11.602 0.59058 11.3047 0.500122 11.0005 0.500122C10.6963 0.500122 10.3989 0.59058 10.1463 0.759996C9.89363 0.929412 9.69706 1.17013 9.58156 1.45155L7.44781 6.61531L1.91375 7.06249C1.61111 7.08809 1.32274 7.20243 1.08479 7.39119C0.846839 7.57994 0.669882 7.83472 0.57609 8.12361C0.482298 8.41249 0.475843 8.72263 0.557532 9.01516C0.639222 9.3077 0.805424 9.56962 1.03531 9.76812L5.25406 13.4084L3.96875 18.8516C3.89687 19.1473 3.91447 19.4577 4.01932 19.7434C4.12417 20.0291 4.31154 20.2771 4.55765 20.4562C4.80376 20.6352 5.09751 20.737 5.4016 20.7488C5.7057 20.7605 6.00643 20.6817 6.26563 20.5222L11 17.6084L15.7372 20.5222C15.9965 20.6798 16.2966 20.7571 16.5997 20.7445C16.9029 20.7318 17.1955 20.6298 17.4408 20.4512C17.6861 20.2726 17.873 20.0254 17.9781 19.7407C18.0832 19.4561 18.1017 19.1467 18.0313 18.8516L16.7413 13.4075L20.96 9.76718C21.1918 9.56902 21.3595 9.30653 21.4419 9.01296C21.5244 8.71939 21.5178 8.40796 21.4231 8.11812ZM19.985 8.63093L15.4194 12.5684C15.3153 12.6582 15.2378 12.7748 15.1955 12.9056C15.1532 13.0364 15.1476 13.1763 15.1794 13.31L16.5744 19.1975C16.578 19.2056 16.5783 19.2148 16.5754 19.2232C16.5724 19.2315 16.5664 19.2385 16.5584 19.2425C16.5416 19.2556 16.5369 19.2528 16.5228 19.2425L11.3928 16.0878C11.2747 16.0152 11.1387 15.9767 11 15.9767C10.8613 15.9767 10.7253 16.0152 10.6072 16.0878L5.47719 19.2444C5.46313 19.2528 5.45938 19.2556 5.44156 19.2444C5.43365 19.2403 5.42759 19.2334 5.42462 19.225C5.42166 19.2167 5.42202 19.2075 5.42563 19.1994L6.82063 13.3119C6.85242 13.1781 6.84685 13.0382 6.80452 12.9075C6.7622 12.7767 6.68475 12.66 6.58063 12.5703L2.015 8.6328C2.00375 8.62343 1.99344 8.61499 2.00281 8.58593C2.01219 8.55687 2.01969 8.56062 2.03375 8.55874L8.02625 8.07499C8.1637 8.0632 8.29523 8.01373 8.40638 7.93203C8.51753 7.85032 8.60399 7.73954 8.65625 7.61187L10.9644 2.02343C10.9719 2.00749 10.9747 1.99999 10.9972 1.99999C11.0197 1.99999 11.0225 2.00749 11.03 2.02343L13.3438 7.61187C13.3965 7.73958 13.4835 7.85025 13.5952 7.93164C13.7068 8.01303 13.8388 8.06199 13.9766 8.07312L19.9691 8.55687C19.9831 8.55687 19.9916 8.55687 20 8.58405C20.0084 8.61124 20 8.62156 19.985 8.63093Z" fill="white"/>
</svg>
